# xmcd
#
# Track frame offsets: 
#        150
#        10322
#        23578
#        37461
#        51860
#        59069
#        74981
#        83815
#        100942
#        116622
#        130960
#        144190
#        159515
#        173603
#        178030
#        188825
#        205145
#        214470
#        229817
#        241850
#        262142
#
# Disc length: 3647 seconds
#
# Revision: 0
# Processed by: cddbd v1.5.2PL0 Copyright (c) Steve Scherf et al.
# Submitted via: ExactAudioCopy v0.99pb4
#
DISCID=3c0e3d15
DTITLE=Willie Nelson - Burning Down Red Lodge  (1 of 3)  August 08, 20
DTITLE=11
DYEAR=2001
DGENRE=Country
TTITLE0=Whiskey River
TTITLE1=Stay a Little Longer
TTITLE2=Good Hearted Woman
TTITLE3=Funny How Time Slips Away
TTITLE4=Crazy
TTITLE5=The Nightlife Aint No Good Life
TTITLE6=Down Yonder
TTITLE7=Working Man's Blues
TTITLE8=Help Me Make It Through The Night
TTITLE9=Me And Bobby McGee
TTITLE10=Fast Train To Georgia
TTITLE11=Blue Skies
TTITLE12=Georgia
TTITLE13=Sheriffs Evacuation Notice
TTITLE14=Mama Do't Let Your Babies Grow Up to be Cowboys
TTITLE15=Angel Flying to Close to the Ground
TTITLE16=On The Road Again
TTITLE17=Always On My Mind
TTITLE18=Will The Circle Be Unbroken
TTITLE19=Amazing Grace
TTITLE20=Uncloudy Day
EXTD=
EXTT0=
EXTT1=
EXTT2=
EXTT3=
EXTT4=
EXTT5=
EXTT6=
EXTT7=
EXTT8=
EXTT9=
EXTT10=
EXTT11=
EXTT12=
EXTT13=
EXTT14=
EXTT15=
EXTT16=
EXTT17=
EXTT18=
EXTT19=
EXTT20=
PLAYORDER=
